<svg width="24" height="24" viewBox="0 0 24 24" fill="none" xmlns="http://www.w3.org/2000/svg">
<g clip-path="url(#clip0_11_513)">
<path d="M22.5 11.25H20.2153C20.0376 9.3301 19.1939 7.53282 17.8306 6.16944C16.4672 4.80606 14.6699 3.96244 12.75 3.78469V1.5C12.75 1.30109 12.671 1.11032 12.5303 0.96967C12.3897 0.829018 12.1989 0.75 12 0.75C11.8011 0.75 11.6103 0.829018 11.4697 0.96967C11.329 1.11032 11.25 1.30109 11.25 1.5V3.78469C9.3301 3.96244 7.53282 4.80606 6.16944 6.16944C4.80606 7.53282 3.96244 9.3301 3.78469 11.25H1.5C1.30109 11.25 1.11032 11.329 0.96967 11.4697C0.829018 11.6103 0.75 11.8011 0.75 12C0.75 12.1989 0.829018 12.3897 0.96967 12.5303C1.11032 12.671 1.30109 12.75 1.5 12.75H3.78469C3.96244 14.6699 4.80606 16.4672 6.16944 17.8306C7.53282 19.1939 9.3301 20.0376 11.25 20.2153V22.5C11.25 22.6989 11.329 22.8897 11.4697 23.0303C11.6103 23.171 11.8011 23.25 12 23.25C12.1989 23.25 12.3897 23.171 12.5303 23.0303C12.671 22.8897 12.75 22.6989 12.75 22.5V20.2153C14.6699 20.0376 16.4672 19.1939 17.8306 17.8306C19.1939 16.4672 20.0376 14.6699 20.2153 12.75H22.5C22.6989 12.75 22.8897 12.671 23.0303 12.5303C23.171 12.3897 23.25 12.1989 23.25 12C23.25 11.8011 23.171 11.6103 23.0303 11.4697C22.8897 11.329 22.6989 11.25 22.5 11.25ZM12 18.75C10.665 18.75 9.35993 18.3541 8.2499 17.6124C7.13987 16.8707 6.2747 15.8165 5.76381 14.5831C5.25292 13.3497 5.11925 11.9925 5.3797 10.6831C5.64015 9.37377 6.28302 8.17103 7.22703 7.22703C8.17103 6.28302 9.37377 5.64015 10.6831 5.3797C11.9925 5.11925 13.3497 5.25292 14.5831 5.76381C15.8165 6.2747 16.8707 7.13987 17.6124 8.2499C18.3541 9.35993 18.75 10.665 18.75 12C18.748 13.7896 18.0362 15.5053 16.7708 16.7708C15.5053 18.0362 13.7896 18.748 12 18.75ZM12 8.25C11.2583 8.25 10.5333 8.46993 9.91661 8.88199C9.29993 9.29404 8.81928 9.87971 8.53545 10.5649C8.25162 11.2502 8.17736 12.0042 8.32205 12.7316C8.46675 13.459 8.8239 14.1272 9.34835 14.6517C9.8728 15.1761 10.541 15.5333 11.2684 15.6779C11.9958 15.8226 12.7498 15.7484 13.4351 15.4645C14.1203 15.1807 14.706 14.7001 15.118 14.0834C15.5301 13.4667 15.75 12.7417 15.75 12C15.75 11.0054 15.3549 10.0516 14.6517 9.34835C13.9484 8.64509 12.9946 8.25 12 8.25ZM12 14.25C11.555 14.25 11.12 14.118 10.75 13.8708C10.38 13.6236 10.0916 13.2722 9.92127 12.861C9.75097 12.4499 9.70642 11.9975 9.79323 11.561C9.88005 11.1246 10.0943 10.7237 10.409 10.409C10.7237 10.0943 11.1246 9.88005 11.561 9.79323C11.9975 9.70642 12.4499 9.75097 12.861 9.92127C13.2722 10.0916 13.6236 10.38 13.8708 10.75C14.118 11.12 14.25 11.555 14.25 12C14.25 12.5967 14.0129 13.169 13.591 13.591C13.169 14.0129 12.5967 14.25 12 14.25Z" fill="#0A0A0A"/>
</g>
<defs>
<clipPath id="clip0_11_513">
<rect width="24" height="24" fill="white"/>
</clipPath>
</defs>
</svg>
