<svg width="24" height="24" viewBox="0 0 24 24" fill="none" xmlns="http://www.w3.org/2000/svg">
<path d="M11.25 12.75V7.50001C11.25 7.3011 11.329 7.11033 11.4697 6.96968C11.6103 6.82903 11.8011 6.75001 12 6.75001C12.1989 6.75001 12.3897 6.82903 12.5303 6.96968C12.671 7.11033 12.75 7.3011 12.75 7.50001V12.75C12.75 12.9489 12.671 13.1397 12.5303 13.2803C12.3897 13.421 12.1989 13.5 12 13.5C11.8011 13.5 11.6103 13.421 11.4697 13.2803C11.329 13.1397 11.25 12.9489 11.25 12.75ZM21.75 8.58282V15.4172C21.7506 15.6142 21.7121 15.8095 21.6366 15.9915C21.5611 16.1735 21.4502 16.3387 21.3103 16.4775L16.4775 21.3103C16.3387 21.4502 16.1735 21.5611 15.9915 21.6366C15.8095 21.7121 15.6142 21.7506 15.4172 21.75H8.58282C8.38577 21.7506 8.19055 21.7121 8.00852 21.6366C7.8265 21.5611 7.66129 21.4502 7.52251 21.3103L2.6897 16.4775C2.5498 16.3387 2.43889 16.1735 2.36341 15.9915C2.28792 15.8095 2.24938 15.6142 2.25001 15.4172V8.58282C2.24938 8.38577 2.28792 8.19055 2.36341 8.00852C2.43889 7.8265 2.5498 7.66129 2.6897 7.52251L7.52251 2.6897C7.66129 2.5498 7.8265 2.43889 8.00852 2.36341C8.19055 2.28792 8.38577 2.24938 8.58282 2.25001H15.4172C15.6142 2.24938 15.8095 2.28792 15.9915 2.36341C16.1735 2.43889 16.3387 2.5498 16.4775 2.6897L21.3103 7.52251C21.4502 7.66129 21.5611 7.8265 21.6366 8.00852C21.7121 8.19055 21.7506 8.38577 21.75 8.58282ZM20.25 8.58282L15.4172 3.75001H8.58282L3.75001 8.58282V15.4172L8.58282 20.25H15.4172L20.25 15.4172V8.58282ZM12 15C11.7775 15 11.56 15.066 11.375 15.1896C11.19 15.3132 11.0458 15.4889 10.9606 15.6945C10.8755 15.9001 10.8532 16.1263 10.8966 16.3445C10.94 16.5627 11.0472 16.7632 11.2045 16.9205C11.3618 17.0778 11.5623 17.185 11.7805 17.2284C11.9988 17.2718 12.225 17.2495 12.4305 17.1644C12.6361 17.0792 12.8118 16.935 12.9354 16.75C13.059 16.565 13.125 16.3475 13.125 16.125C13.125 15.8266 13.0065 15.5405 12.7955 15.3295C12.5845 15.1185 12.2984 15 12 15Z" fill="currentColor"/>
</svg>
